<svg width="116" height="114" viewBox="0 0 116 114" fill="none" xmlns="http://www.w3.org/2000/svg">
<path d="M12.5 10H75.2C80.425 10 84.7 14.275 84.7 19.5V29.95C84.7 33.75 82.325 38.5 79.95 40.875L59.525 58.925C56.675 61.3 54.775 66.05 54.775 69.85V90.275C54.775 93.125 52.875 96.925 50.5 98.35L43.85 102.625C37.675 106.425 29.125 102.15 29.125 94.55V69.375C29.125 66.05 27.225 61.775 25.325 59.4L7.275 40.4C4.9 38.025 3 33.75 3 30.9V19.975C3 14.275 7.275 10 12.5 10Z" stroke="#6FFDFF" stroke-width="5" stroke-miterlimit="10" stroke-linecap="round" stroke-linejoin="round"/>
<path d="M53.9175 9.97498L24 55.5" stroke="#6FFDFF" stroke-width="5" stroke-miterlimit="10" stroke-linecap="round" stroke-linejoin="round"/>
</svg>
